# xmcd CD database file
#
# Track frame offsets:
#	150
#	16813
#	31933
#	49198
#	65123
#	80944
#	97222
#	111832
#	130995
#	148760
#	162724
#	180471
#	193919
#	207054
#	227362
#	243724
#	258779
#	274345
#	287784
#
# Disc length: 4044 seconds
#
# Revision: 0
# Processed by: cddbd v1.5.2PL0 Copyright (c) Steve Scherf et al.
# Submitted via: CDex 1.70beta2
#
DISCID=250fca13
DTITLE=Jorge and Mateus - Jorge and Mateus - 2009
DYEAR=2009
DGENRE=Country
TTITLE0=É Bom Demais
TTITLE1=Espelho
TTITLE2=Pirraça
TTITLE3=Um Dia Te Levo Comigo
TTITLE4=Pra Nunca Dizer Adeus
TTITLE5=Voa Beija Flor
TTITLE6=Mistérios
TTITLE7=Pout-Pourri: Bandeira Branca/Empreitada Perigosa/Vou Tomar um Pingão/Tchau Amor!
TTITLE8=Saudade
TTITLE9=O mundo é tão Pequeno
TTITLE10=Amor Covarde
TTITLE11=Se Eu Pedir, Você Volta?
TTITLE12=Só Eu Sei
TTITLE13=Não Sai Da Minha Vida
TTITLE14=Louca Paixão
TTITLE15=Quebre o Silêncio
TTITLE16=Só Falta Você
TTITLE17=O Que Os Olhos Não Vêem, O Seu Coração
TTITLE18=Tudo Ou Nada
EXTD=YEAR: 2009
EXTT0=
EXTT1=
EXTT2=
EXTT3=
EXTT4=
EXTT5=
EXTT6=
EXTT7=
EXTT8=
EXTT9=
EXTT10=
EXTT11=
EXTT12=
EXTT13=
EXTT14=
EXTT15=
EXTT16=
EXTT17=
EXTT18=
PLAYORDER=
